<svg width="640" height="440" viewBox="0 0 640 440" fill="none" xmlns="http://www.w3.org/2000/svg">
  <defs>
    <linearGradient id="orangeGrad" x1="0" y1="0" x2="1" y2="0">
      <stop offset="0%" stop-color="#efa063"/>
      <stop offset="100%" stop-color="#e47c55"/>
    </linearGradient>
    <linearGradient id="baseGrad" x1="0" y1="0" x2="0" y2="1">
      <stop offset="0%" stop-color="#3a2419"/>
      <stop offset="100%" stop-color="#2e1911"/>
    </linearGradient>
  </defs>

  <!-- soft shadow -->
  <ellipse cx="300" cy="404" rx="230" ry="18" fill="#2e1911" opacity="0.08"/>

  <!-- ===== Laptop ===== -->
  <!-- outer bezel -->
  <rect x="60" y="26" width="410" height="272" rx="16" fill="#2e1911"/>
  <!-- screen -->
  <rect x="72" y="38" width="386" height="248" rx="6" fill="#fbfbfb"/>

  <!-- screen top bar -->
  <rect x="72" y="38" width="386" height="30" rx="6" fill="#25b6ab"/>
  <rect x="72" y="56" width="386" height="12" fill="#25b6ab"/>
  <circle cx="88" cy="53" r="4" fill="#ffffff" opacity="0.85"/>
  <circle cx="101" cy="53" r="4" fill="#ffffff" opacity="0.6"/>
  <circle cx="114" cy="53" r="4" fill="#ffffff" opacity="0.4"/>
  <rect x="380" y="47" width="64" height="12" rx="6" fill="#ffffff" opacity="0.9"/>

  <!-- sidebar -->
  <rect x="72" y="68" width="62" height="218" fill="#f4f4f4"/>
  <rect x="90" y="88" width="26" height="26" rx="7" fill="#25b6ab"/>
  <rect x="90" y="126" width="26" height="26" rx="7" fill="url(#orangeGrad)"/>
  <rect x="90" y="164" width="26" height="26" rx="7" fill="#d9d9d9"/>
  <rect x="90" y="202" width="26" height="26" rx="7" fill="#d9d9d9"/>
  <rect x="90" y="240" width="26" height="26" rx="7" fill="#d9d9d9"/>

  <!-- main content: chart card -->
  <rect x="146" y="82" width="150" height="118" rx="10" fill="#ffffff" stroke="#ececec"/>
  <rect x="160" y="96" width="70" height="8" rx="4" fill="#2e1911" opacity="0.7"/>
  <rect x="163" y="152" width="16" height="34" rx="2" fill="#25b6ab"/>
  <rect x="186" y="136" width="16" height="50" rx="2" fill="url(#orangeGrad)"/>
  <rect x="209" y="160" width="16" height="26" rx="2" fill="#25b6ab" opacity="0.55"/>
  <rect x="232" y="122" width="16" height="64" rx="2" fill="url(#orangeGrad)" opacity="0.85"/>
  <rect x="255" y="146" width="16" height="40" rx="2" fill="#25b6ab"/>

  <!-- main content: RFQ list card -->
  <rect x="306" y="82" width="138" height="118" rx="10" fill="#ffffff" stroke="#ececec"/>
  <rect x="318" y="94" width="60" height="8" rx="4" fill="#2e1911" opacity="0.7"/>
  <rect x="318" y="114" width="114" height="24" rx="6" fill="#fdf1e9"/>
  <circle cx="330" cy="126" r="5" fill="url(#orangeGrad)"/>
  <rect x="342" y="122" width="70" height="7" rx="3.5" fill="#e47c55" opacity="0.7"/>
  <rect x="318" y="146" width="114" height="24" rx="6" fill="#eef6f5"/>
  <circle cx="330" cy="158" r="5" fill="#25b6ab"/>
  <rect x="342" y="154" width="70" height="7" rx="3.5" fill="#25b6ab" opacity="0.7"/>
  <rect x="318" y="178" width="114" height="14" rx="6" fill="#f4f4f4"/>

  <!-- bottom stat strip -->
  <rect x="146" y="208" width="298" height="60" rx="10" fill="#ffffff" stroke="#ececec"/>
  <rect x="160" y="220" width="60" height="7" rx="3.5" fill="#2e1911" opacity="0.55"/>
  <rect x="160" y="234" width="40" height="14" rx="4" fill="#25b6ab" opacity="0.85"/>
  <rect x="240" y="220" width="60" height="7" rx="3.5" fill="#2e1911" opacity="0.55"/>
  <rect x="240" y="234" width="40" height="14" rx="4" fill="url(#orangeGrad)"/>
  <rect x="320" y="220" width="60" height="7" rx="3.5" fill="#2e1911" opacity="0.55"/>
  <rect x="320" y="234" width="40" height="14" rx="4" fill="#25b6ab" opacity="0.5"/>

  <!-- laptop base -->
  <path d="M40 298 L490 298 L470 322 C468 326 463 328 458 328 L72 328 C67 328 62 326 60 322 L40 298 Z" fill="url(#baseGrad)"/>
  <rect x="245" y="308" width="40" height="5" rx="2.5" fill="#5a4033"/>

  <!-- ===== Phone ===== -->
  <rect x="470" y="150" width="118" height="220" rx="20" fill="#2e1911"/>
  <rect x="480" y="164" width="98" height="192" rx="10" fill="#ffffff"/>
  <rect x="480" y="164" width="98" height="26" rx="10" fill="url(#orangeGrad)"/>
  <rect x="480" y="180" width="98" height="10" fill="url(#orangeGrad)"/>
  <circle cx="529" cy="177" r="10" fill="#ffffff" opacity="0.9"/>
  <path d="M524 177 l4 4 l7 -8" stroke="url(#orangeGrad)" stroke-width="2.4" fill="none" stroke-linecap="round" stroke-linejoin="round"/>

  <rect x="492" y="204" width="74" height="34" rx="8" fill="#eef6f5"/>
  <rect x="502" y="214" width="40" height="6" rx="3" fill="#25b6ab"/>
  <rect x="502" y="224" width="26" height="6" rx="3" fill="#25b6ab" opacity="0.6"/>

  <rect x="492" y="246" width="74" height="34" rx="8" fill="#fdf1e9"/>
  <rect x="502" y="256" width="40" height="6" rx="3" fill="#e47c55"/>
  <rect x="502" y="266" width="26" height="6" rx="3" fill="#e47c55" opacity="0.6"/>

  <rect x="492" y="288" width="74" height="34" rx="8" fill="#f4f4f4"/>
  <rect x="502" y="298" width="40" height="6" rx="3" fill="#2e1911" opacity="0.5"/>
  <rect x="502" y="308" width="26" height="6" rx="3" fill="#2e1911" opacity="0.3"/>

  <rect x="514" y="360" width="30" height="4" rx="2" fill="#5a4033"/>
</svg>
